solid OpenSCAD_Model
  facet normal 0.994525 0.104503 -0
    outer loop
      vertex 2.69745 0.5 12
      vertex 2.68991 0.571756 26.4
      vertex 2.69745 0.5 26.4
    endloop
  endfacet
  facet normal 0.994525 0.104503 0
    outer loop
      vertex 2.68991 0.571756 26.4
      vertex 2.69745 0.5 12
      vertex 2.68991 0.571756 3.91
    endloop
  endfacet
  facet normal 0.994522 0.104524 1.91233e-07
    outer loop
      vertex 2.75 0 12
      vertex 2.68991 0.571756 3.91
      vertex 2.69745 0.5 12
    endloop
  endfacet
  facet normal 0.994523 0.104522 0
    outer loop
      vertex 2.68991 0.571756 3.91
      vertex 2.75 0 12
      vertex 2.75 0 3.91
    endloop
  endfacet
  facet normal -0.994525 0.104503 0
    outer loop
      vertex -2.68991 0.571756 3.91
      vertex -2.69745 0.5 12
      vertex -2.68991 0.571756 26.4
    endloop
  endfacet
  facet normal -0.994523 0.104522 1.67234e-07
    outer loop
      vertex -2.75 0 3.91
      vertex -2.69745 0.5 12
      vertex -2.68991 0.571756 3.91
    endloop
  endfacet
  facet normal -0.994522 0.104524 0
    outer loop
      vertex -2.69745 0.5 12
      vertex -2.75 0 3.91
      vertex -2.75 0 12
    endloop
  endfacet
  facet normal -0.994525 0.104503 0
    outer loop
      vertex -2.68991 0.571756 26.4
      vertex -2.69745 0.5 12
      vertex -2.69745 0.5 26.4
    endloop
  endfacet
  facet normal 0 1 -0
    outer loop
      vertex 0.287453 2.73493 3.91
      vertex -0.287453 2.73493 12
      vertex 0.287453 2.73493 12
    endloop
  endfacet
  facet normal 0 1 0
    outer loop
      vertex -0.287453 2.73493 12
      vertex 0.287453 2.73493 3.91
      vertex -0.287453 2.73493 3.91
    endloop
  endfacet
  facet normal 0 -1 0
    outer loop
      vertex -0.287453 -2.73493 3.91
      vertex 0.287453 -2.73493 12
      vertex -0.287453 -2.73493 12
    endloop
  endfacet
  facet normal 0 -1 -0
    outer loop
      vertex 0.287453 -2.73493 12
      vertex -0.287453 -2.73493 3.91
      vertex 0.287453 -2.73493 3.91
    endloop
  endfacet
  facet normal 0.743144 0.669132 0
    outer loop
      vertex 2.2248 1.61641 26.4
      vertex 1.84011 2.04365 3.91
      vertex 1.84011 2.04365 26.4
    endloop
  endfacet
  facet normal 0.743144 0.669132 0
    outer loop
      vertex 1.84011 2.04365 3.91
      vertex 2.2248 1.61641 26.4
      vertex 2.2248 1.61641 3.91
    endloop
  endfacet
  facet normal 0.951055 0.309021 0
    outer loop
      vertex 2.68991 0.571756 26.4
      vertex 2.51225 1.11853 3.91
      vertex 2.51225 1.11853 26.4
    endloop
  endfacet
  facet normal 0.951055 0.309021 0
    outer loop
      vertex 2.51225 1.11853 3.91
      vertex 2.68991 0.571756 26.4
      vertex 2.68991 0.571756 3.91
    endloop
  endfacet
  facet normal -0.743144 0.669132 0
    outer loop
      vertex -2.2248 1.61641 3.91
      vertex -1.84011 2.04365 26.4
      vertex -1.84011 2.04365 3.91
    endloop
  endfacet
  facet normal -0.743144 0.669132 0
    outer loop
      vertex -1.84011 2.04365 26.4
      vertex -2.2248 1.61641 3.91
      vertex -2.2248 1.61641 26.4
    endloop
  endfacet
  facet normal -0.866026 0.499998 0
    outer loop
      vertex -2.51225 1.11853 3.91
      vertex -2.2248 1.61641 26.4
      vertex -2.2248 1.61641 3.91
    endloop
  endfacet
  facet normal -0.866026 0.499998 0
    outer loop
      vertex -2.2248 1.61641 26.4
      vertex -2.51225 1.11853 3.91
      vertex -2.51225 1.11853 26.4
    endloop
  endfacet
  facet normal -0.406743 0.913543 0
    outer loop
      vertex -0.849796 2.61541 3.91
      vertex -1.375 2.38157 26.4
      vertex -0.849796 2.61541 26.4
    endloop
  endfacet
  facet normal -0.406743 0.913543 0
    outer loop
      vertex -1.375 2.38157 26.4
      vertex -0.849796 2.61541 3.91
      vertex -1.375 2.38157 3.91
    endloop
  endfacet
  facet normal 0.866026 0.499998 0
    outer loop
      vertex 2.51225 1.11853 26.4
      vertex 2.2248 1.61641 3.91
      vertex 2.2248 1.61641 26.4
    endloop
  endfacet
  facet normal 0.866026 0.499998 0
    outer loop
      vertex 2.2248 1.61641 3.91
      vertex 2.51225 1.11853 26.4
      vertex 2.51225 1.11853 3.91
    endloop
  endfacet
  facet normal 0.406743 0.913543 -0
    outer loop
      vertex 1.375 2.38157 3.91
      vertex 0.849796 2.61541 26.4
      vertex 1.375 2.38157 26.4
    endloop
  endfacet
  facet normal 0.406743 0.913543 0
    outer loop
      vertex 0.849796 2.61541 26.4
      vertex 1.375 2.38157 3.91
      vertex 0.849796 2.61541 3.91
    endloop
  endfacet
  facet normal 0.207908 0.978148 0
    outer loop
      vertex 0.849796 2.61541 26.4
      vertex 0.5 2.68976 12
      vertex 0.5 2.68976 26.4
    endloop
  endfacet
  facet normal 0.207908 0.978148 -0
    outer loop
      vertex 0.849796 2.61541 3.91
      vertex 0.5 2.68976 12
      vertex 0.849796 2.61541 26.4
    endloop
  endfacet
  facet normal 0.207896 0.978151 -5.55611e-07
    outer loop
      vertex 0.287453 2.73493 3.91
      vertex 0.5 2.68976 12
      vertex 0.849796 2.61541 3.91
    endloop
  endfacet
  facet normal 0.207875 0.978155 0
    outer loop
      vertex 0.5 2.68976 12
      vertex 0.287453 2.73493 3.91
      vertex 0.287453 2.73493 12
    endloop
  endfacet
  facet normal 0.587783 0.809019 -0
    outer loop
      vertex 1.84011 2.04365 3.91
      vertex 1.375 2.38157 26.4
      vertex 1.84011 2.04365 26.4
    endloop
  endfacet
  facet normal 0.587783 0.809019 0
    outer loop
      vertex 1.375 2.38157 26.4
      vertex 1.84011 2.04365 3.91
      vertex 1.375 2.38157 3.91
    endloop
  endfacet
  facet normal -0.951055 0.309021 0
    outer loop
      vertex -2.68991 0.571756 3.91
      vertex -2.51225 1.11853 26.4
      vertex -2.51225 1.11853 3.91
    endloop
  endfacet
  facet normal -0.951055 0.309021 0
    outer loop
      vertex -2.51225 1.11853 26.4
      vertex -2.68991 0.571756 3.91
      vertex -2.68991 0.571756 26.4
    endloop
  endfacet
  facet normal 0 0 -1
    outer loop
      vertex 2.68991 0.571756 26.4
      vertex 3.42352 0.727691 26.4
      vertex 3.44745 0.5 26.4
    endloop
  endfacet
  facet normal -0 0 -1
    outer loop
      vertex 3.42352 0.727691 26.4
      vertex 2.68991 0.571756 26.4
      vertex 3.19741 1.42358 26.4
    endloop
  endfacet
  facet normal 0 0 -1
    outer loop
      vertex 2.68991 0.571756 26.4
      vertex 3.44745 0.5 26.4
      vertex 2.69745 0.5 26.4
    endloop
  endfacet
  facet normal 0 0 -1
    outer loop
      vertex 3.19741 1.42358 26.4
      vertex 2.68991 0.571756 26.4
      vertex 2.51225 1.11853 26.4
    endloop
  endfacet
  facet normal -0 0 -1
    outer loop
      vertex 3.19741 1.42358 26.4
      vertex 2.51225 1.11853 26.4
      vertex 2.83156 2.05725 26.4
    endloop
  endfacet
  facet normal 0 0 -1
    outer loop
      vertex 2.2248 1.61641 26.4
      vertex 2.83156 2.05725 26.4
      vertex 2.51225 1.11853 26.4
    endloop
  endfacet
  facet normal -0 0 -1
    outer loop
      vertex 2.83156 2.05725 26.4
      vertex 2.2248 1.61641 26.4
      vertex 2.34196 2.60101 26.4
    endloop
  endfacet
  facet normal 0 0 -1
    outer loop
      vertex 1.84011 2.04365 26.4
      vertex 2.34196 2.60101 26.4
      vertex 2.2248 1.61641 26.4
    endloop
  endfacet
  facet normal 0 0 -1
    outer loop
      vertex 1.84011 2.04365 26.4
      vertex 1.75 3.03109 26.4
      vertex 2.34196 2.60101 26.4
    endloop
  endfacet
  facet normal 0 0 -1
    outer loop
      vertex 1.375 2.38157 26.4
      vertex 1.75 3.03109 26.4
      vertex 1.84011 2.04365 26.4
    endloop
  endfacet
  facet normal 0 0 -1
    outer loop
      vertex 1.375 2.38157 26.4
      vertex 1.08156 3.3287 26.4
      vertex 1.75 3.03109 26.4
    endloop
  endfacet
  facet normal 0 0 -1
    outer loop
      vertex 0.849796 2.61541 26.4
      vertex 1.08156 3.3287 26.4
      vertex 1.375 2.38157 26.4
    endloop
  endfacet
  facet normal 0 0 -1
    outer loop
      vertex 0.5 2.68976 26.4
      vertex 1.08156 3.3287 26.4
      vertex 0.849796 2.61541 26.4
    endloop
  endfacet
  facet normal -0 0 -1
    outer loop
      vertex 1.08156 3.3287 26.4
      vertex 0.5 2.68976 26.4
      vertex 0.5 3.45231 26.4
    endloop
  endfacet
  facet normal 0 0 -1
    outer loop
      vertex -1.08156 3.3287 26.4
      vertex -0.5 2.68976 26.4
      vertex -0.849796 2.61541 26.4
    endloop
  endfacet
  facet normal 0 0 -1
    outer loop
      vertex -0.5 2.68976 26.4
      vertex -1.08156 3.3287 26.4
      vertex -0.5 3.45231 26.4
    endloop
  endfacet
  facet normal 0 0 -1
    outer loop
      vertex -1.375 2.38157 26.4
      vertex -1.08156 3.3287 26.4
      vertex -0.849796 2.61541 26.4
    endloop
  endfacet
  facet normal 0 0 -1
    outer loop
      vertex -1.375 2.38157 26.4
      vertex -1.75 3.03109 26.4
      vertex -1.08156 3.3287 26.4
    endloop
  endfacet
  facet normal 0 0 -1
    outer loop
      vertex -1.84011 2.04365 26.4
      vertex -1.75 3.03109 26.4
      vertex -1.375 2.38157 26.4
    endloop
  endfacet
  facet normal 0 0 -1
    outer loop
      vertex -2.34196 2.60101 26.4
      vertex -1.84011 2.04365 26.4
      vertex -2.2248 1.61641 26.4
    endloop
  endfacet
  facet normal 0 0 -1
    outer loop
      vertex -1.84011 2.04365 26.4
      vertex -2.34196 2.60101 26.4
      vertex -1.75 3.03109 26.4
    endloop
  endfacet
  facet normal 0 0 -1
    outer loop
      vertex -2.83156 2.05725 26.4
      vertex -2.2248 1.61641 26.4
      vertex -2.51225 1.11853 26.4
    endloop
  endfacet
  facet normal 0 0 -1
    outer loop
      vertex -3.19741 1.42358 26.4
      vertex -2.51225 1.11853 26.4
      vertex -2.68991 0.571756 26.4
    endloop
  endfacet
  facet normal 0 0 -1
    outer loop
      vertex -2.2248 1.61641 26.4
      vertex -2.83156 2.05725 26.4
      vertex -2.34196 2.60101 26.4
    endloop
  endfacet
  facet normal 0 0 -1
    outer loop
      vertex -3.42352 0.727691 26.4
      vertex -2.68991 0.571756 26.4
      vertex -2.69745 0.5 26.4
    endloop
  endfacet
  facet normal 0 0 -1
    outer loop
      vertex -2.51225 1.11853 26.4
      vertex -3.19741 1.42358 26.4
      vertex -2.83156 2.05725 26.4
    endloop
  endfacet
  facet normal 0 0 -1
    outer loop
      vertex -2.68991 0.571756 26.4
      vertex -3.42352 0.727691 26.4
      vertex -3.19741 1.42358 26.4
    endloop
  endfacet
  facet normal 0 -0 -1
    outer loop
      vertex -3.42352 0.727691 26.4
      vertex -2.69745 0.5 26.4
      vertex -3.44745 0.5 26.4
    endloop
  endfacet
  facet normal 0 0 -1
    outer loop
      vertex -1.08156 -3.3287 26.4
      vertex -0.5 -2.68976 26.4
      vertex -0.5 -3.45231 26.4
    endloop
  endfacet
  facet normal -0 0 -1
    outer loop
      vertex -0.5 -2.68976 26.4
      vertex -1.08156 -3.3287 26.4
      vertex -0.849796 -2.61541 26.4
    endloop
  endfacet
  facet normal 0 0 -1
    outer loop
      vertex -1.08156 -3.3287 26.4
      vertex -1.375 -2.38157 26.4
      vertex -0.849796 -2.61541 26.4
    endloop
  endfacet
  facet normal 0 0 -1
    outer loop
      vertex -1.75 -3.03109 26.4
      vertex -1.375 -2.38157 26.4
      vertex -1.08156 -3.3287 26.4
    endloop
  endfacet
  facet normal 0 0 -1
    outer loop
      vertex -1.75 -3.03109 26.4
      vertex -1.84011 -2.04365 26.4
      vertex -1.375 -2.38157 26.4
    endloop
  endfacet
  facet normal 0 0 -1
    outer loop
      vertex -2.34196 -2.60101 26.4
      vertex -1.84011 -2.04365 26.4
      vertex -1.75 -3.03109 26.4
    endloop
  endfacet
  facet normal -0 0 -1
    outer loop
      vertex -1.84011 -2.04365 26.4
      vertex -2.34196 -2.60101 26.4
      vertex -2.2248 -1.61641 26.4
    endloop
  endfacet
  facet normal 0 0 -1
    outer loop
      vertex -2.83156 -2.05725 26.4
      vertex -2.2248 -1.61641 26.4
      vertex -2.34196 -2.60101 26.4
    endloop
  endfacet
  facet normal -0 0 -1
    outer loop
      vertex -2.2248 -1.61641 26.4
      vertex -2.83156 -2.05725 26.4
      vertex -2.51225 -1.11853 26.4
    endloop
  endfacet
  facet normal 0 0 -1
    outer loop
      vertex -3.19741 -1.42358 26.4
      vertex -2.51225 -1.11853 26.4
      vertex -2.83156 -2.05725 26.4
    endloop
  endfacet
  facet normal -0 0 -1
    outer loop
      vertex -2.51225 -1.11853 26.4
      vertex -3.19741 -1.42358 26.4
      vertex -2.68991 -0.571756 26.4
    endloop
  endfacet
  facet normal 0 0 -1
    outer loop
      vertex -3.42352 -0.727691 26.4
      vertex -2.68991 -0.571756 26.4
      vertex -3.19741 -1.42358 26.4
    endloop
  endfacet
  facet normal -0 0 -1
    outer loop
      vertex -2.68991 -0.571756 26.4
      vertex -3.42352 -0.727691 26.4
      vertex -2.69745 -0.5 26.4
    endloop
  endfacet
  facet normal -0 0 -1
    outer loop
      vertex -2.69745 -0.5 26.4
      vertex -3.42352 -0.727691 26.4
      vertex -3.44745 -0.5 26.4
    endloop
  endfacet
  facet normal 0 0 -1
    outer loop
      vertex 2.68991 -0.571756 26.4
      vertex 3.42352 -0.727691 26.4
      vertex 3.19741 -1.42358 26.4
    endloop
  endfacet
  facet normal 0 0 -1
    outer loop
      vertex 2.51225 -1.11853 26.4
      vertex 3.19741 -1.42358 26.4
      vertex 2.83156 -2.05725 26.4
    endloop
  endfacet
  facet normal 0 -0 -1
    outer loop
      vertex 2.68991 -0.571756 26.4
      vertex 3.19741 -1.42358 26.4
      vertex 2.51225 -1.11853 26.4
    endloop
  endfacet
  facet normal -0 0 -1
    outer loop
      vertex 3.44745 -0.5 26.4
      vertex 2.68991 -0.571756 26.4
      vertex 2.69745 -0.5 26.4
    endloop
  endfacet
  facet normal 0 0 -1
    outer loop
      vertex 3.42352 -0.727691 26.4
      vertex 2.68991 -0.571756 26.4
      vertex 3.44745 -0.5 26.4
    endloop
  endfacet
  facet normal 0 0 -1
    outer loop
      vertex 2.2248 -1.61641 26.4
      vertex 2.83156 -2.05725 26.4
      vertex 2.34196 -2.60101 26.4
    endloop
  endfacet
  facet normal 0 0 -1
    outer loop
      vertex 2.83156 -2.05725 26.4
      vertex 2.2248 -1.61641 26.4
      vertex 2.51225 -1.11853 26.4
    endloop
  endfacet
  facet normal 0 0 -1
    outer loop
      vertex 2.34196 -2.60101 26.4
      vertex 1.84011 -2.04365 26.4
      vertex 2.2248 -1.61641 26.4
    endloop
  endfacet
  facet normal 0 0 -1
    outer loop
      vertex 1.75 -3.03109 26.4
      vertex 1.84011 -2.04365 26.4
      vertex 2.34196 -2.60101 26.4
    endloop
  endfacet
  facet normal 0 0 -1
    outer loop
      vertex 1.75 -3.03109 26.4
      vertex 1.375 -2.38157 26.4
      vertex 1.84011 -2.04365 26.4
    endloop
  endfacet
  facet normal 0 0 -1
    outer loop
      vertex 1.08156 -3.3287 26.4
      vertex 1.375 -2.38157 26.4
      vertex 1.75 -3.03109 26.4
    endloop
  endfacet
  facet normal 0 0 -1
    outer loop
      vertex 1.08156 -3.3287 26.4
      vertex 0.849796 -2.61541 26.4
      vertex 1.375 -2.38157 26.4
    endloop
  endfacet
  facet normal 0 0 -1
    outer loop
      vertex 0.5 -2.68976 26.4
      vertex 1.08156 -3.3287 26.4
      vertex 0.5 -3.45231 26.4
    endloop
  endfacet
  facet normal 0 0 -1
    outer loop
      vertex 1.08156 -3.3287 26.4
      vertex 0.5 -2.68976 26.4
      vertex 0.849796 -2.61541 26.4
    endloop
  endfacet
  facet normal -0.587783 0.809019 0
    outer loop
      vertex -1.375 2.38157 3.91
      vertex -1.84011 2.04365 26.4
      vertex -1.375 2.38157 26.4
    endloop
  endfacet
  facet normal -0.587783 0.809019 0
    outer loop
      vertex -1.84011 2.04365 26.4
      vertex -1.375 2.38157 3.91
      vertex -1.84011 2.04365 3.91
    endloop
  endfacet
  facet normal -0.207875 0.978155 0
    outer loop
      vertex -0.287453 2.73493 12
      vertex -0.287453 2.73493 3.91
      vertex -0.5 2.68976 12
    endloop
  endfacet
  facet normal -0.207908 0.978148 0
    outer loop
      vertex -0.5 2.68976 12
      vertex -0.849796 2.61541 26.4
      vertex -0.5 2.68976 26.4
    endloop
  endfacet
  facet normal -0.207908 0.978148 0
    outer loop
      vertex -0.5 2.68976 12
      vertex -0.849796 2.61541 3.91
      vertex -0.849796 2.61541 26.4
    endloop
  endfacet
  facet normal -0.207896 0.978151 -5.55611e-07
    outer loop
      vertex -0.849796 2.61541 3.91
      vertex -0.5 2.68976 12
      vertex -0.287453 2.73493 3.91
    endloop
  endfacet
  facet normal 0.994525 -0.104503 0
    outer loop
      vertex 2.69745 -0.5 26.4
      vertex 2.68991 -0.571756 26.4
      vertex 2.69745 -0.5 12
    endloop
  endfacet
  facet normal 0.994522 -0.104524 0
    outer loop
      vertex 2.69745 -0.5 12
      vertex 2.75 0 3.91
      vertex 2.75 0 12
    endloop
  endfacet
  facet normal 0.994523 -0.104522 1.67234e-07
    outer loop
      vertex 2.69745 -0.5 12
      vertex 2.68991 -0.571756 3.91
      vertex 2.75 0 3.91
    endloop
  endfacet
  facet normal 0.994525 -0.104503 0
    outer loop
      vertex 2.68991 -0.571756 3.91
      vertex 2.69745 -0.5 12
      vertex 2.68991 -0.571756 26.4
    endloop
  endfacet
  facet normal 0 0 -1
    outer loop
      vertex -5.75 0 0
      vertex 5.75 0 0
      vertex 5.62435 -1.19549 0
    endloop
  endfacet
  facet normal 0 0 -1
    outer loop
      vertex -5.75 0 0
      vertex 5.62435 -1.19549 0
      vertex 5.25289 -2.33874 0
    endloop
  endfacet
  facet normal 0 0 -1
    outer loop
      vertex -5.75 0 0
      vertex 5.25289 -2.33874 0
      vertex 4.65185 -3.37976 0
    endloop
  endfacet
  facet normal 0 0 -1
    outer loop
      vertex -5.75 0 0
      vertex 4.65185 -3.37976 0
      vertex 3.8475 -4.27308 0
    endloop
  endfacet
  facet normal 0 0 -1
    outer loop
      vertex -5.75 0 0
      vertex 3.8475 -4.27308 0
      vertex 2.875 -4.97965 0
    endloop
  endfacet
  facet normal 0 0 -1
    outer loop
      vertex 5.75 0 0
      vertex -5.75 0 0
      vertex 5.75 101.2 0
    endloop
  endfacet
  facet normal 0 0 -1
    outer loop
      vertex -5.75 0 0
      vertex 2.875 -4.97965 0
      vertex 1.77685 -5.46857 0
    endloop
  endfacet
  facet normal 0 0 -1
    outer loop
      vertex -5.75 0 0
      vertex 1.77685 -5.46857 0
      vertex 0.601038 -5.7185 0
    endloop
  endfacet
  facet normal 0 0 -1
    outer loop
      vertex -5.75 0 0
      vertex 0.601038 -5.7185 0
      vertex -0.601038 -5.7185 0
    endloop
  endfacet
  facet normal 0 0 -1
    outer loop
      vertex -5.75 0 0
      vertex -0.601038 -5.7185 0
      vertex -1.77685 -5.46857 0
    endloop
  endfacet
  facet normal 0 0 -1
    outer loop
      vertex -5.75 0 0
      vertex -1.77685 -5.46857 0
      vertex -2.875 -4.97965 0
    endloop
  endfacet
  facet normal 0 0 -1
    outer loop
      vertex -5.75 101.2 0
      vertex 5.75 101.2 0
      vertex -5.75 0 0
    endloop
  endfacet
  facet normal 0 0 -1
    outer loop
      vertex -5.75 0 0
      vertex -2.875 -4.97965 0
      vertex -3.8475 -4.27308 0
    endloop
  endfacet
  facet normal 0 0 -1
    outer loop
      vertex -5.75 0 0
      vertex -3.8475 -4.27308 0
      vertex -4.65185 -3.37976 0
    endloop
  endfacet
  facet normal 0 0 -1
    outer loop
      vertex -5.75 0 0
      vertex -4.65185 -3.37976 0
      vertex -5.25289 -2.33874 0
    endloop
  endfacet
  facet normal 0 0 -1
    outer loop
      vertex -5.75 0 0
      vertex -5.25289 -2.33874 0
      vertex -5.62435 -1.19549 0
    endloop
  endfacet
  facet normal 0 0 -1
    outer loop
      vertex 5.75 101.2 0
      vertex -5.75 101.2 0
      vertex 2.875 106.18 0
    endloop
  endfacet
  facet normal -0 0 -1
    outer loop
      vertex 2.875 106.18 0
      vertex -5.75 101.2 0
      vertex -2.875 106.18 0
    endloop
  endfacet
  facet normal 0.207875 -0.978155 0
    outer loop
      vertex 0.287453 -2.73493 12
      vertex 0.287453 -2.73493 3.91
      vertex 0.5 -2.68976 12
    endloop
  endfacet
  facet normal 0.207908 -0.978148 0
    outer loop
      vertex 0.5 -2.68976 12
      vertex 0.849796 -2.61541 26.4
      vertex 0.5 -2.68976 26.4
    endloop
  endfacet
  facet normal 0.207908 -0.978148 0
    outer loop
      vertex 0.5 -2.68976 12
      vertex 0.849796 -2.61541 3.91
      vertex 0.849796 -2.61541 26.4
    endloop
  endfacet
  facet normal 0.207896 -0.978151 -5.55611e-07
    outer loop
      vertex 0.849796 -2.61541 3.91
      vertex 0.5 -2.68976 12
      vertex 0.287453 -2.73493 3.91
    endloop
  endfacet
  facet normal 0.866026 -0.499998 0
    outer loop
      vertex 2.2248 -1.61641 26.4
      vertex 2.51225 -1.11853 3.91
      vertex 2.51225 -1.11853 26.4
    endloop
  endfacet
  facet normal 0.866026 -0.499998 0
    outer loop
      vertex 2.51225 -1.11853 3.91
      vertex 2.2248 -1.61641 26.4
      vertex 2.2248 -1.61641 3.91
    endloop
  endfacet
  facet normal -0.866026 -0.499998 0
    outer loop
      vertex -2.2248 -1.61641 3.91
      vertex -2.51225 -1.11853 26.4
      vertex -2.51225 -1.11853 3.91
    endloop
  endfacet
  facet normal -0.866026 -0.499998 0
    outer loop
      vertex -2.51225 -1.11853 26.4
      vertex -2.2248 -1.61641 3.91
      vertex -2.2248 -1.61641 26.4
    endloop
  endfacet
  facet normal 0.587783 -0.809019 0
    outer loop
      vertex 1.375 -2.38157 3.91
      vertex 1.84011 -2.04365 26.4
      vertex 1.375 -2.38157 26.4
    endloop
  endfacet
  facet normal 0.587783 -0.809019 0
    outer loop
      vertex 1.84011 -2.04365 26.4
      vertex 1.375 -2.38157 3.91
      vertex 1.84011 -2.04365 3.91
    endloop
  endfacet
  facet normal 0.406743 -0.913543 0
    outer loop
      vertex 0.849796 -2.61541 3.91
      vertex 1.375 -2.38157 26.4
      vertex 0.849796 -2.61541 26.4
    endloop
  endfacet
  facet normal 0.406743 -0.913543 0
    outer loop
      vertex 1.375 -2.38157 26.4
      vertex 0.849796 -2.61541 3.91
      vertex 1.375 -2.38157 3.91
    endloop
  endfacet
  facet normal 0.951055 -0.309021 0
    outer loop
      vertex 2.51225 -1.11853 26.4
      vertex 2.68991 -0.571756 3.91
      vertex 2.68991 -0.571756 26.4
    endloop
  endfacet
  facet normal 0.951055 -0.309021 0
    outer loop
      vertex 2.68991 -0.571756 3.91
      vertex 2.51225 -1.11853 26.4
      vertex 2.51225 -1.11853 3.91
    endloop
  endfacet
  facet normal -0.207908 -0.978148 0
    outer loop
      vertex -0.849796 -2.61541 26.4
      vertex -0.5 -2.68976 12
      vertex -0.5 -2.68976 26.4
    endloop
  endfacet
  facet normal -0.207908 -0.978148 0
    outer loop
      vertex -0.849796 -2.61541 3.91
      vertex -0.5 -2.68976 12
      vertex -0.849796 -2.61541 26.4
    endloop
  endfacet
  facet normal -0.207896 -0.978151 -5.55611e-07
    outer loop
      vertex -0.287453 -2.73493 3.91
      vertex -0.5 -2.68976 12
      vertex -0.849796 -2.61541 3.91
    endloop
  endfacet
  facet normal -0.207875 -0.978155 0
    outer loop
      vertex -0.5 -2.68976 12
      vertex -0.287453 -2.73493 3.91
      vertex -0.287453 -2.73493 12
    endloop
  endfacet
  facet normal -0.743144 -0.669132 0
    outer loop
      vertex -1.84011 -2.04365 3.91
      vertex -2.2248 -1.61641 26.4
      vertex -2.2248 -1.61641 3.91
    endloop
  endfacet
  facet normal -0.743144 -0.669132 0
    outer loop
      vertex -2.2248 -1.61641 26.4
      vertex -1.84011 -2.04365 3.91
      vertex -1.84011 -2.04365 26.4
    endloop
  endfacet
  facet normal -0.951055 -0.309021 0
    outer loop
      vertex -2.51225 -1.11853 3.91
      vertex -2.68991 -0.571756 26.4
      vertex -2.68991 -0.571756 3.91
    endloop
  endfacet
  facet normal -0.951055 -0.309021 0
    outer loop
      vertex -2.68991 -0.571756 26.4
      vertex -2.51225 -1.11853 3.91
      vertex -2.51225 -1.11853 26.4
    endloop
  endfacet
  facet normal -0.994522 -0.104524 0
    outer loop
      vertex -2.75 0 3.91
      vertex -2.69745 -0.5 12
      vertex -2.75 0 12
    endloop
  endfacet
  facet normal -0.994523 -0.104522 1.67234e-07
    outer loop
      vertex -2.68991 -0.571756 3.91
      vertex -2.69745 -0.5 12
      vertex -2.75 0 3.91
    endloop
  endfacet
  facet normal -0.994525 -0.104503 -0
    outer loop
      vertex -2.68991 -0.571756 26.4
      vertex -2.69745 -0.5 12
      vertex -2.68991 -0.571756 3.91
    endloop
  endfacet
  facet normal -0.994525 -0.104503 0
    outer loop
      vertex -2.69745 -0.5 12
      vertex -2.68991 -0.571756 26.4
      vertex -2.69745 -0.5 26.4
    endloop
  endfacet
  facet normal 0.743144 -0.669132 0
    outer loop
      vertex 1.84011 -2.04365 26.4
      vertex 2.2248 -1.61641 3.91
      vertex 2.2248 -1.61641 26.4
    endloop
  endfacet
  facet normal 0.743144 -0.669132 0
    outer loop
      vertex 2.2248 -1.61641 3.91
      vertex 1.84011 -2.04365 26.4
      vertex 1.84011 -2.04365 3.91
    endloop
  endfacet
  facet normal -0.406743 -0.913543 0
    outer loop
      vertex -1.375 -2.38157 3.91
      vertex -0.849796 -2.61541 26.4
      vertex -1.375 -2.38157 26.4
    endloop
  endfacet
  facet normal -0.406743 -0.913543 -0
    outer loop
      vertex -0.849796 -2.61541 26.4
      vertex -1.375 -2.38157 3.91
      vertex -0.849796 -2.61541 3.91
    endloop
  endfacet
  facet normal -0.587783 -0.809019 0
    outer loop
      vertex -1.84011 -2.04365 3.91
      vertex -1.375 -2.38157 26.4
      vertex -1.84011 -2.04365 26.4
    endloop
  endfacet
  facet normal -0.587783 -0.809019 -0
    outer loop
      vertex -1.375 -2.38157 26.4
      vertex -1.84011 -2.04365 3.91
      vertex -1.375 -2.38157 3.91
    endloop
  endfacet
  facet normal -0.981129 0.103178 0.163522
    outer loop
      vertex -2.44537 0.519779 32.4
      vertex -2.4855 0.5 32.1717
      vertex -2.44745 0.5 32.4
    endloop
  endfacet
  facet normal 0.981129 0.103178 0.163522
    outer loop
      vertex 2.4855 0.5 32.1717
      vertex 2.44537 0.519779 32.4
      vertex 2.44745 0.5 32.4
    endloop
  endfacet
  facet normal 0.981131 0.103158 0.163524
    outer loop
      vertex 2.4855 0.5 32.1717
      vertex 3.42352 0.727691 26.4
      vertex 2.44537 0.519779 32.4
    endloop
  endfacet
  facet normal 0.981136 0.103116 0.163523
    outer loop
      vertex 3.42352 0.727691 26.4
      vertex 2.4855 0.5 32.1717
      vertex 3.44745 0.5 26.4
    endloop
  endfacet
  facet normal -0.205111 -0.964982 0.163521
    outer loop
      vertex -0.5 -2.43557 32.4
      vertex -0.772542 -2.37764 32.4
      vertex -0.5 -3.11693 28.3791
    endloop
  endfacet
  facet normal 0.938252 0.304866 0.163524
    outer loop
      vertex 3.19741 1.42358 26.4
      vertex 2.28386 1.01684 32.4
      vertex 2.44537 0.519779 32.4
    endloop
  endfacet
  facet normal -0.981136 -0.103116 0.163523
    outer loop
      vertex -3.42352 -0.727691 26.4
      vertex -2.4855 -0.5 32.1717
      vertex -3.44745 -0.5 26.4
    endloop
  endfacet
  facet normal -0.981131 -0.103158 0.163524
    outer loop
      vertex -2.4855 -0.5 32.1717
      vertex -3.42352 -0.727691 26.4
      vertex -2.44537 -0.519779 32.4
    endloop
  endfacet
  facet normal 0.854368 -0.493269 0.163523
    outer loop
      vertex 2.28386 -1.01684 32.4
      vertex 2.02254 -1.46946 32.4
      vertex 2.83156 -2.05725 26.4
    endloop
  endfacet
  facet normal 0.57987 0.79813 0.163523
    outer loop
      vertex 1.75 3.03109 26.4
      vertex 1.25 2.16506 32.4
      vertex 2.34196 2.60101 26.4
    endloop
  endfacet
  facet normal -0.205106 0.964982 0.163527
    outer loop
      vertex -1.08156 3.3287 26.4
      vertex -0.5 3.11693 28.3791
      vertex -0.5 3.45231 26.4
    endloop
  endfacet
  facet normal -0.205091 0.964986 0.163523
    outer loop
      vertex -0.5 3.11693 28.3791
      vertex -1.08156 3.3287 26.4
      vertex -0.772542 2.37764 32.4
    endloop
  endfacet
  facet normal -0.733144 0.660121 0.163523
    outer loop
      vertex -2.34196 2.60101 26.4
      vertex -2.83156 2.05725 26.4
      vertex -2.02254 1.46946 32.4
    endloop
  endfacet
  facet normal -0.57987 0.79813 0.163523
    outer loop
      vertex -1.75 3.03109 26.4
      vertex -2.34196 2.60101 26.4
      vertex -1.25 2.16506 32.4
    endloop
  endfacet
  facet normal -0.938254 -0.30486 0.163523
    outer loop
      vertex -2.44537 -0.519779 32.4
      vertex -3.42352 -0.727691 26.4
      vertex -3.19741 -1.42358 26.4
    endloop
  endfacet
  facet normal -0.57987 -0.79813 0.163523
    outer loop
      vertex -1.25 -2.16506 32.4
      vertex -2.34196 -2.60101 26.4
      vertex -1.75 -3.03109 26.4
    endloop
  endfacet
  facet normal -0.401265 -0.901247 0.163523
    outer loop
      vertex -1.25 -2.16506 32.4
      vertex -1.75 -3.03109 26.4
      vertex -0.772542 -2.37764 32.4
    endloop
  endfacet
  facet normal 0.579868 -0.798131 0.163523
    outer loop
      vertex 1.67283 -1.85786 32.4
      vertex 1.25 -2.16506 32.4
      vertex 2.34196 -2.60101 26.4
    endloop
  endfacet
  facet normal 0.938254 -0.30486 0.163523
    outer loop
      vertex 3.42352 -0.727691 26.4
      vertex 2.44537 -0.519779 32.4
      vertex 3.19741 -1.42358 26.4
    endloop
  endfacet
  facet normal 0.854368 0.49327 0.163523
    outer loop
      vertex 2.83156 2.05725 26.4
      vertex 2.28386 1.01684 32.4
      vertex 3.19741 1.42358 26.4
    endloop
  endfacet
  facet normal 0.938254 0.30486 0.163523
    outer loop
      vertex 3.19741 1.42358 26.4
      vertex 2.44537 0.519779 32.4
      vertex 3.42352 0.727691 26.4
    endloop
  endfacet
  facet normal 0.733144 0.660121 0.163523
    outer loop
      vertex 2.34196 2.60101 26.4
      vertex 2.02254 1.46946 32.4
      vertex 2.83156 2.05725 26.4
    endloop
  endfacet
  facet normal 0.401263 0.901248 0.163523
    outer loop
      vertex 1.08156 3.3287 26.4
      vertex 0.772542 2.37764 32.4
      vertex 1.75 3.03109 26.4
    endloop
  endfacet
  facet normal 0 0 1
    outer loop
      vertex -0.5 -0.5 32.4
      vertex -0.772542 -2.37764 32.4
      vertex -0.5 -2.43557 32.4
    endloop
  endfacet
  facet normal 0 0 1
    outer loop
      vertex -0.5 -0.5 32.4
      vertex -1.25 -2.16506 32.4
      vertex -0.772542 -2.37764 32.4
    endloop
  endfacet
  facet normal 0 0 1
    outer loop
      vertex -0.5 -0.5 32.4
      vertex -1.67283 -1.85786 32.4
      vertex -1.25 -2.16506 32.4
    endloop
  endfacet
  facet normal 0 0 1
    outer loop
      vertex -0.5 -0.5 32.4
      vertex -2.02254 -1.46946 32.4
      vertex -1.67283 -1.85786 32.4
    endloop
  endfacet
  facet normal 0 0 1
    outer loop
      vertex -0.5 -0.5 32.4
      vertex -2.28386 -1.01684 32.4
      vertex -2.02254 -1.46946 32.4
    endloop
  endfacet
  facet normal 0 0 1
    outer loop
      vertex -0.5 -0.5 32.4
      vertex -2.44537 -0.519779 32.4
      vertex -2.28386 -1.01684 32.4
    endloop
  endfacet
  facet normal 0 -0 1
    outer loop
      vertex -2.44537 -0.519779 32.4
      vertex -0.5 -0.5 32.4
      vertex -2.44745 -0.5 32.4
    endloop
  endfacet
  facet normal 0 0 1
    outer loop
      vertex 0.5 0.5 32.4
      vertex 2.44537 0.519779 32.4
      vertex 2.28386 1.01684 32.4
    endloop
  endfacet
  facet normal 0 0 1
    outer loop
      vertex 0.5 0.5 32.4
      vertex 2.28386 1.01684 32.4
      vertex 2.02254 1.46946 32.4
    endloop
  endfacet
  facet normal 0 0 1
    outer loop
      vertex 0.5 0.5 32.4
      vertex 2.02254 1.46946 32.4
      vertex 1.67283 1.85786 32.4
    endloop
  endfacet
  facet normal 0 0 1
    outer loop
      vertex 0.5 0.5 32.4
      vertex 1.67283 1.85786 32.4
      vertex 1.25 2.16506 32.4
    endloop
  endfacet
  facet normal 0 0 1
    outer loop
      vertex 0.5 0.5 32.4
      vertex 1.25 2.16506 32.4
      vertex 0.772542 2.37764 32.4
    endloop
  endfacet
  facet normal 0 0 1
    outer loop
      vertex 0.5 0.5 32.4
      vertex 0.772542 2.37764 32.4
      vertex 0.5 2.43557 32.4
    endloop
  endfacet
  facet normal 0 0 1
    outer loop
      vertex 2.44537 0.519779 32.4
      vertex 0.5 0.5 32.4
      vertex 2.44745 0.5 32.4
    endloop
  endfacet
  facet normal -0 0 1
    outer loop
      vertex 0.5 -0.5 32.4
      vertex 2.44537 -0.519779 32.4
      vertex 2.44745 -0.5 32.4
    endloop
  endfacet
  facet normal 0 0 1
    outer loop
      vertex 2.44537 -0.519779 32.4
      vertex 0.5 -0.5 32.4
      vertex 2.28386 -1.01684 32.4
    endloop
  endfacet
  facet normal 0 0 1
    outer loop
      vertex 2.28386 -1.01684 32.4
      vertex 0.5 -0.5 32.4
      vertex 2.02254 -1.46946 32.4
    endloop
  endfacet
  facet normal 0 0 1
    outer loop
      vertex 2.02254 -1.46946 32.4
      vertex 0.5 -0.5 32.4
      vertex 1.67283 -1.85786 32.4
    endloop
  endfacet
  facet normal 0 0 1
    outer loop
      vertex 1.67283 -1.85786 32.4
      vertex 0.5 -0.5 32.4
      vertex 1.25 -2.16506 32.4
    endloop
  endfacet
  facet normal 0 0 1
    outer loop
      vertex 1.25 -2.16506 32.4
      vertex 0.5 -0.5 32.4
      vertex 0.772542 -2.37764 32.4
    endloop
  endfacet
  facet normal 0 0 1
    outer loop
      vertex 0.772542 -2.37764 32.4
      vertex 0.5 -0.5 32.4
      vertex 0.5 -2.43557 32.4
    endloop
  endfacet
  facet normal -0 0 1
    outer loop
      vertex -0.772542 2.37764 32.4
      vertex -0.5 0.5 32.4
      vertex -0.5 2.43557 32.4
    endloop
  endfacet
  facet normal -0 0 1
    outer loop
      vertex -1.25 2.16506 32.4
      vertex -0.5 0.5 32.4
      vertex -0.772542 2.37764 32.4
    endloop
  endfacet
  facet normal -0 0 1
    outer loop
      vertex -1.67283 1.85786 32.4
      vertex -0.5 0.5 32.4
      vertex -1.25 2.16506 32.4
    endloop
  endfacet
  facet normal -0 0 1
    outer loop
      vertex -2.02254 1.46946 32.4
      vertex -0.5 0.5 32.4
      vertex -1.67283 1.85786 32.4
    endloop
  endfacet
  facet normal -0 0 1
    outer loop
      vertex -2.28386 1.01684 32.4
      vertex -0.5 0.5 32.4
      vertex -2.02254 1.46946 32.4
    endloop
  endfacet
  facet normal -0 0 1
    outer loop
      vertex -2.44537 0.519779 32.4
      vertex -0.5 0.5 32.4
      vertex -2.28386 1.01684 32.4
    endloop
  endfacet
  facet normal 0 0 1
    outer loop
      vertex -0.5 0.5 32.4
      vertex -2.44537 0.519779 32.4
      vertex -2.44745 0.5 32.4
    endloop
  endfacet
  facet normal -0.854368 0.493269 0.163523
    outer loop
      vertex -2.02254 1.46946 32.4
      vertex -2.83156 2.05725 26.4
      vertex -2.28386 1.01684 32.4
    endloop
  endfacet
  facet normal -0.579868 0.798131 0.163523
    outer loop
      vertex -1.25 2.16506 32.4
      vertex -2.34196 2.60101 26.4
      vertex -1.67283 1.85786 32.4
    endloop
  endfacet
  facet normal -0.401263 0.901248 0.163523
    outer loop
      vertex -1.08156 3.3287 26.4
      vertex -1.75 3.03109 26.4
      vertex -0.772542 2.37764 32.4
    endloop
  endfacet
  facet normal -0.401265 0.901247 0.163523
    outer loop
      vertex -0.772542 2.37764 32.4
      vertex -1.75 3.03109 26.4
      vertex -1.25 2.16506 32.4
    endloop
  endfacet
  facet normal -0.733148 -0.660117 0.163523
    outer loop
      vertex -2.02254 -1.46946 32.4
      vertex -2.34196 -2.60101 26.4
      vertex -1.67283 -1.85786 32.4
    endloop
  endfacet
  facet normal -0.938252 -0.304866 0.163524
    outer loop
      vertex -2.44537 -0.519779 32.4
      vertex -3.19741 -1.42358 26.4
      vertex -2.28386 -1.01684 32.4
    endloop
  endfacet
  facet normal -0.579868 -0.798131 0.163523
    outer loop
      vertex -1.67283 -1.85786 32.4
      vertex -2.34196 -2.60101 26.4
      vertex -1.25 -2.16506 32.4
    endloop
  endfacet
  facet normal 0.205106 -0.964982 0.163527
    outer loop
      vertex 1.08156 -3.3287 26.4
      vertex 0.5 -3.11693 28.3791
      vertex 0.5 -3.45231 26.4
    endloop
  endfacet
  facet normal 0.205091 -0.964986 0.163523
    outer loop
      vertex 0.5 -3.11693 28.3791
      vertex 1.08156 -3.3287 26.4
      vertex 0.772542 -2.37764 32.4
    endloop
  endfacet
  facet normal 0.733144 -0.660121 0.163523
    outer loop
      vertex 2.83156 -2.05725 26.4
      vertex 2.02254 -1.46946 32.4
      vertex 2.34196 -2.60101 26.4
    endloop
  endfacet
  facet normal 0.854368 -0.49327 0.163523
    outer loop
      vertex 3.19741 -1.42358 26.4
      vertex 2.28386 -1.01684 32.4
      vertex 2.83156 -2.05725 26.4
    endloop
  endfacet
  facet normal 0.981131 -0.103158 0.163524
    outer loop
      vertex 3.42352 -0.727691 26.4
      vertex 2.4855 -0.5 32.1717
      vertex 2.44537 -0.519779 32.4
    endloop
  endfacet
  facet normal 0.981136 -0.103116 0.163523
    outer loop
      vertex 2.4855 -0.5 32.1717
      vertex 3.42352 -0.727691 26.4
      vertex 3.44745 -0.5 26.4
    endloop
  endfacet
  facet normal 0.981129 -0.103178 0.163522
    outer loop
      vertex 2.44745 -0.5 32.4
      vertex 2.44537 -0.519779 32.4
      vertex 2.4855 -0.5 32.1717
    endloop
  endfacet
  facet normal 0.854368 0.493269 0.163523
    outer loop
      vertex 2.83156 2.05725 26.4
      vertex 2.02254 1.46946 32.4
      vertex 2.28386 1.01684 32.4
    endloop
  endfacet
  facet normal 0.733148 0.660117 0.163523
    outer loop
      vertex 2.34196 2.60101 26.4
      vertex 1.67283 1.85786 32.4
      vertex 2.02254 1.46946 32.4
    endloop
  endfacet
  facet normal 0.579868 0.798131 0.163523
    outer loop
      vertex 2.34196 2.60101 26.4
      vertex 1.25 2.16506 32.4
      vertex 1.67283 1.85786 32.4
    endloop
  endfacet
  facet normal 0.205091 0.964986 0.163523
    outer loop
      vertex 1.08156 3.3287 26.4
      vertex 0.5 3.11693 28.3791
      vertex 0.772542 2.37764 32.4
    endloop
  endfacet
  facet normal 0.205106 0.964982 0.163527
    outer loop
      vertex 0.5 3.11693 28.3791
      vertex 1.08156 3.3287 26.4
      vertex 0.5 3.45231 26.4
    endloop
  endfacet
  facet normal 0.205111 0.964982 0.163521
    outer loop
      vertex 0.5 3.11693 28.3791
      vertex 0.5 2.43557 32.4
      vertex 0.772542 2.37764 32.4
    endloop
  endfacet
  facet normal -0.938254 0.30486 0.163523
    outer loop
      vertex -3.19741 1.42358 26.4
      vertex -3.42352 0.727691 26.4
      vertex -2.44537 0.519779 32.4
    endloop
  endfacet
  facet normal -0.981136 0.103116 0.163523
    outer loop
      vertex -2.4855 0.5 32.1717
      vertex -3.42352 0.727691 26.4
      vertex -3.44745 0.5 26.4
    endloop
  endfacet
  facet normal -0.981131 0.103158 0.163524
    outer loop
      vertex -3.42352 0.727691 26.4
      vertex -2.4855 0.5 32.1717
      vertex -2.44537 0.519779 32.4
    endloop
  endfacet
  facet normal -0.205111 0.964982 0.163521
    outer loop
      vertex -0.5 3.11693 28.3791
      vertex -0.772542 2.37764 32.4
      vertex -0.5 2.43557 32.4
    endloop
  endfacet
  facet normal -0.981129 -0.103178 0.163522
    outer loop
      vertex -2.44745 -0.5 32.4
      vertex -2.4855 -0.5 32.1717
      vertex -2.44537 -0.519779 32.4
    endloop
  endfacet
  facet normal -0.854368 -0.49327 0.163523
    outer loop
      vertex -2.28386 -1.01684 32.4
      vertex -3.19741 -1.42358 26.4
      vertex -2.83156 -2.05725 26.4
    endloop
  endfacet
  facet normal -0.401263 -0.901248 0.163523
    outer loop
      vertex -0.772542 -2.37764 32.4
      vertex -1.75 -3.03109 26.4
      vertex -1.08156 -3.3287 26.4
    endloop
  endfacet
  facet normal -0.205091 -0.964986 0.163523
    outer loop
      vertex -1.08156 -3.3287 26.4
      vertex -0.5 -3.11693 28.3791
      vertex -0.772542 -2.37764 32.4
    endloop
  endfacet
  facet normal -0.205106 -0.964982 0.163527
    outer loop
      vertex -0.5 -3.11693 28.3791
      vertex -1.08156 -3.3287 26.4
      vertex -0.5 -3.45231 26.4
    endloop
  endfacet
  facet normal 0.401263 -0.901248 0.163523
    outer loop
      vertex 1.75 -3.03109 26.4
      vertex 0.772542 -2.37764 32.4
      vertex 1.08156 -3.3287 26.4
    endloop
  endfacet
  facet normal 0.205111 -0.964982 0.163521
    outer loop
      vertex 0.5 -2.43557 32.4
      vertex 0.5 -3.11693 28.3791
      vertex 0.772542 -2.37764 32.4
    endloop
  endfacet
  facet normal 0.733148 -0.660117 0.163523
    outer loop
      vertex 2.02254 -1.46946 32.4
      vertex 1.67283 -1.85786 32.4
      vertex 2.34196 -2.60101 26.4
    endloop
  endfacet
  facet normal 0.401265 0.901247 0.163523
    outer loop
      vertex 1.75 3.03109 26.4
      vertex 0.772542 2.37764 32.4
      vertex 1.25 2.16506 32.4
    endloop
  endfacet
  facet normal -0.733148 0.660117 0.163523
    outer loop
      vertex -1.67283 1.85786 32.4
      vertex -2.34196 2.60101 26.4
      vertex -2.02254 1.46946 32.4
    endloop
  endfacet
  facet normal -0.854368 -0.493269 0.163523
    outer loop
      vertex -2.28386 -1.01684 32.4
      vertex -2.83156 -2.05725 26.4
      vertex -2.02254 -1.46946 32.4
    endloop
  endfacet
  facet normal -0.733144 -0.660121 0.163523
    outer loop
      vertex -2.02254 -1.46946 32.4
      vertex -2.83156 -2.05725 26.4
      vertex -2.34196 -2.60101 26.4
    endloop
  endfacet
  facet normal 0.401265 -0.901247 0.163523
    outer loop
      vertex 1.25 -2.16506 32.4
      vertex 0.772542 -2.37764 32.4
      vertex 1.75 -3.03109 26.4
    endloop
  endfacet
  facet normal 0.57987 -0.79813 0.163523
    outer loop
      vertex 2.34196 -2.60101 26.4
      vertex 1.25 -2.16506 32.4
      vertex 1.75 -3.03109 26.4
    endloop
  endfacet
  facet normal 0.938252 -0.304866 0.163524
    outer loop
      vertex 2.44537 -0.519779 32.4
      vertex 2.28386 -1.01684 32.4
      vertex 3.19741 -1.42358 26.4
    endloop
  endfacet
  facet normal -0.854368 0.49327 0.163523
    outer loop
      vertex -2.83156 2.05725 26.4
      vertex -3.19741 1.42358 26.4
      vertex -2.28386 1.01684 32.4
    endloop
  endfacet
  facet normal -0.938252 0.304866 0.163524
    outer loop
      vertex -2.28386 1.01684 32.4
      vertex -3.19741 1.42358 26.4
      vertex -2.44537 0.519779 32.4
    endloop
  endfacet
  facet normal 0 -1 0
    outer loop
      vertex -0.601038 -5.7185 0
      vertex 0.601038 -5.7185 3.91
      vertex -0.601038 -5.7185 3.91
    endloop
  endfacet
  facet normal 0 -1 -0
    outer loop
      vertex 0.601038 -5.7185 3.91
      vertex -0.601038 -5.7185 0
      vertex 0.601038 -5.7185 0
    endloop
  endfacet
  facet normal 0.951058 -0.309014 0
    outer loop
      vertex 5.25289 -2.33874 3.91
      vertex 5.62435 -1.19549 0
      vertex 5.62435 -1.19549 3.91
    endloop
  endfacet
  facet normal 0.951058 -0.309014 0
    outer loop
      vertex 5.62435 -1.19549 0
      vertex 5.25289 -2.33874 3.91
      vertex 5.25289 -2.33874 0
    endloop
  endfacet
  facet normal -0 0 1
    outer loop
      vertex 1.375 2.38157 3.91
      vertex 5.75 0 3.91
      vertex 5.75 101.2 3.91
    endloop
  endfacet
  facet normal -0 -0 1
    outer loop
      vertex 2.2248 1.61641 3.91
      vertex 5.75 0 3.91
      vertex 1.84011 2.04365 3.91
    endloop
  endfacet
  facet normal -0 -0 1
    outer loop
      vertex 2.68991 0.571756 3.91
      vertex 5.75 0 3.91
      vertex 2.51225 1.11853 3.91
    endloop
  endfacet
  facet normal 0 0 1
    outer loop
      vertex 5.75 0 3.91
      vertex 2.75 0 3.91
      vertex 5.62435 -1.19549 3.91
    endloop
  endfacet
  facet normal 0 0 1
    outer loop
      vertex -5.75 101.2 3.91
      vertex 5.75 101.2 3.91
      vertex 2.875 106.18 3.91
    endloop
  endfacet
  facet normal 0 0 1
    outer loop
      vertex 5.62435 -1.19549 3.91
      vertex 2.68991 -0.571756 3.91
      vertex 5.25289 -2.33874 3.91
    endloop
  endfacet
  facet normal 0 0 1
    outer loop
      vertex 5.25289 -2.33874 3.91
      vertex 2.51225 -1.11853 3.91
      vertex 4.65185 -3.37976 3.91
    endloop
  endfacet
  facet normal -0 0 1
    outer loop
      vertex 2.51225 -1.11853 3.91
      vertex 5.25289 -2.33874 3.91
      vertex 2.68991 -0.571756 3.91
    endloop
  endfacet
  facet normal -0 0 1
    outer loop
      vertex 2.68991 -0.571756 3.91
      vertex 5.62435 -1.19549 3.91
      vertex 2.75 0 3.91
    endloop
  endfacet
  facet normal 0 -0 1
    outer loop
      vertex 2.75 0 3.91
      vertex 5.75 0 3.91
      vertex 2.68991 0.571756 3.91
    endloop
  endfacet
  facet normal -0 -0 1
    outer loop
      vertex 2.51225 1.11853 3.91
      vertex 5.75 0 3.91
      vertex 2.2248 1.61641 3.91
    endloop
  endfacet
  facet normal 0 0 1
    outer loop
      vertex 5.75 0 3.91
      vertex 1.375 2.38157 3.91
      vertex 1.84011 2.04365 3.91
    endloop
  endfacet
  facet normal 0 -0 1
    outer loop
      vertex 0.287453 2.73493 3.91
      vertex 5.75 101.2 3.91
      vertex -5.75 101.2 3.91
    endloop
  endfacet
  facet normal 0 0 1
    outer loop
      vertex 5.75 101.2 3.91
      vertex 0.849796 2.61541 3.91
      vertex 1.375 2.38157 3.91
    endloop
  endfacet
  facet normal 0 0 1
    outer loop
      vertex 5.75 101.2 3.91
      vertex 0.287453 2.73493 3.91
      vertex 0.849796 2.61541 3.91
    endloop
  endfacet
  facet normal 0 0 1
    outer loop
      vertex 0.287453 2.73493 3.91
      vertex -5.75 101.2 3.91
      vertex -0.287453 2.73493 3.91
    endloop
  endfacet
  facet normal 0 0 1
    outer loop
      vertex -0.287453 2.73493 3.91
      vertex -5.75 101.2 3.91
      vertex -0.849796 2.61541 3.91
    endloop
  endfacet
  facet normal 0 0 1
    outer loop
      vertex -0.849796 2.61541 3.91
      vertex -5.75 101.2 3.91
      vertex -1.375 2.38157 3.91
    endloop
  endfacet
  facet normal 0 0 1
    outer loop
      vertex -5.75 0 3.91
      vertex -1.375 2.38157 3.91
      vertex -5.75 101.2 3.91
    endloop
  endfacet
  facet normal 0 0 1
    outer loop
      vertex -1.375 2.38157 3.91
      vertex -5.75 0 3.91
      vertex -1.84011 2.04365 3.91
    endloop
  endfacet
  facet normal 0 0 1
    outer loop
      vertex -1.84011 2.04365 3.91
      vertex -5.75 0 3.91
      vertex -2.2248 1.61641 3.91
    endloop
  endfacet
  facet normal 0 0 1
    outer loop
      vertex -2.2248 1.61641 3.91
      vertex -5.75 0 3.91
      vertex -2.51225 1.11853 3.91
    endloop
  endfacet
  facet normal 0 0 1
    outer loop
      vertex -5.75 101.2 3.91
      vertex 2.875 106.18 3.91
      vertex -2.875 106.18 3.91
    endloop
  endfacet
  facet normal -0 0 1
    outer loop
      vertex 2.2248 -1.61641 3.91
      vertex 4.65185 -3.37976 3.91
      vertex 2.51225 -1.11853 3.91
    endloop
  endfacet
  facet normal 0 0 1
    outer loop
      vertex 4.65185 -3.37976 3.91
      vertex 2.2248 -1.61641 3.91
      vertex 3.8475 -4.27308 3.91
    endloop
  endfacet
  facet normal -0 0 1
    outer loop
      vertex 1.84011 -2.04365 3.91
      vertex 3.8475 -4.27308 3.91
      vertex 2.2248 -1.61641 3.91
    endloop
  endfacet
  facet normal 0 0 1
    outer loop
      vertex 3.8475 -4.27308 3.91
      vertex 1.84011 -2.04365 3.91
      vertex 2.875 -4.97965 3.91
    endloop
  endfacet
  facet normal -0 0 1
    outer loop
      vertex 1.375 -2.38157 3.91
      vertex 2.875 -4.97965 3.91
      vertex 1.84011 -2.04365 3.91
    endloop
  endfacet
  facet normal 0 0 1
    outer loop
      vertex 2.875 -4.97965 3.91
      vertex 1.375 -2.38157 3.91
      vertex 1.77685 -5.46857 3.91
    endloop
  endfacet
  facet normal -0 0 1
    outer loop
      vertex 0.849796 -2.61541 3.91
      vertex 1.77685 -5.46857 3.91
      vertex 1.375 -2.38157 3.91
    endloop
  endfacet
  facet normal 0 0 1
    outer loop
      vertex 0.849796 -2.61541 3.91
      vertex 0.601038 -5.7185 3.91
      vertex 1.77685 -5.46857 3.91
    endloop
  endfacet
  facet normal -0 0 1
    outer loop
      vertex 0.287453 -2.73493 3.91
      vertex 0.601038 -5.7185 3.91
      vertex 0.849796 -2.61541 3.91
    endloop
  endfacet
  facet normal -0 0 1
    outer loop
      vertex -0.287453 -2.73493 3.91
      vertex 0.601038 -5.7185 3.91
      vertex 0.287453 -2.73493 3.91
    endloop
  endfacet
  facet normal 0 0 1
    outer loop
      vertex -0.287453 -2.73493 3.91
      vertex -0.601038 -5.7185 3.91
      vertex 0.601038 -5.7185 3.91
    endloop
  endfacet
  facet normal 0 0 1
    outer loop
      vertex -0.849796 -2.61541 3.91
      vertex -0.601038 -5.7185 3.91
      vertex -0.287453 -2.73493 3.91
    endloop
  endfacet
  facet normal 0 0 1
    outer loop
      vertex -1.77685 -5.46857 3.91
      vertex -0.849796 -2.61541 3.91
      vertex -1.375 -2.38157 3.91
    endloop
  endfacet
  facet normal 0 0 1
    outer loop
      vertex -0.849796 -2.61541 3.91
      vertex -1.77685 -5.46857 3.91
      vertex -0.601038 -5.7185 3.91
    endloop
  endfacet
  facet normal 0 0 1
    outer loop
      vertex -2.875 -4.97965 3.91
      vertex -1.375 -2.38157 3.91
      vertex -1.84011 -2.04365 3.91
    endloop
  endfacet
  facet normal 0 0 1
    outer loop
      vertex -3.8475 -4.27308 3.91
      vertex -1.84011 -2.04365 3.91
      vertex -2.2248 -1.61641 3.91
    endloop
  endfacet
  facet normal 0 0 1
    outer loop
      vertex -4.65185 -3.37976 3.91
      vertex -2.2248 -1.61641 3.91
      vertex -2.51225 -1.11853 3.91
    endloop
  endfacet
  facet normal 0 0 1
    outer loop
      vertex -5.25289 -2.33874 3.91
      vertex -2.51225 -1.11853 3.91
      vertex -2.68991 -0.571756 3.91
    endloop
  endfacet
  facet normal 0 0 1
    outer loop
      vertex -1.375 -2.38157 3.91
      vertex -2.875 -4.97965 3.91
      vertex -1.77685 -5.46857 3.91
    endloop
  endfacet
  facet normal 0 0 1
    outer loop
      vertex -5.62435 -1.19549 3.91
      vertex -2.68991 -0.571756 3.91
      vertex -2.75 0 3.91
    endloop
  endfacet
  facet normal 0 0 1
    outer loop
      vertex -2.51225 1.11853 3.91
      vertex -5.75 0 3.91
      vertex -2.68991 0.571756 3.91
    endloop
  endfacet
  facet normal 0 -0 1
    outer loop
      vertex -5.62435 -1.19549 3.91
      vertex -2.75 0 3.91
      vertex -5.75 0 3.91
    endloop
  endfacet
  facet normal 0 0 1
    outer loop
      vertex -1.84011 -2.04365 3.91
      vertex -3.8475 -4.27308 3.91
      vertex -2.875 -4.97965 3.91
    endloop
  endfacet
  facet normal 0 0 1
    outer loop
      vertex -2.2248 -1.61641 3.91
      vertex -4.65185 -3.37976 3.91
      vertex -3.8475 -4.27308 3.91
    endloop
  endfacet
  facet normal 0 0 1
    outer loop
      vertex -2.51225 -1.11853 3.91
      vertex -5.25289 -2.33874 3.91
      vertex -4.65185 -3.37976 3.91
    endloop
  endfacet
  facet normal 0 0 1
    outer loop
      vertex -2.68991 0.571756 3.91
      vertex -5.75 0 3.91
      vertex -2.75 0 3.91
    endloop
  endfacet
  facet normal 0 0 1
    outer loop
      vertex -2.68991 -0.571756 3.91
      vertex -5.62435 -1.19549 3.91
      vertex -5.25289 -2.33874 3.91
    endloop
  endfacet
  facet normal 0.994522 -0.104528 0
    outer loop
      vertex 5.62435 -1.19549 3.91
      vertex 5.75 0 0
      vertex 5.75 0 3.91
    endloop
  endfacet
  facet normal 0.994522 -0.104528 0
    outer loop
      vertex 5.75 0 0
      vertex 5.62435 -1.19549 3.91
      vertex 5.62435 -1.19549 0
    endloop
  endfacet
  facet normal 0.207914 -0.978147 0
    outer loop
      vertex 0.601038 -5.7185 0
      vertex 1.77685 -5.46857 3.91
      vertex 0.601038 -5.7185 3.91
    endloop
  endfacet
  facet normal 0.207914 -0.978147 0
    outer loop
      vertex 1.77685 -5.46857 3.91
      vertex 0.601038 -5.7185 0
      vertex 1.77685 -5.46857 0
    endloop
  endfacet
  facet normal 0.866023 -0.500004 0
    outer loop
      vertex 4.65185 -3.37976 3.91
      vertex 5.25289 -2.33874 0
      vertex 5.25289 -2.33874 3.91
    endloop
  endfacet
  facet normal 0.866023 -0.500004 0
    outer loop
      vertex 5.25289 -2.33874 0
      vertex 4.65185 -3.37976 3.91
      vertex 4.65185 -3.37976 0
    endloop
  endfacet
  facet normal -0.587789 -0.809014 0
    outer loop
      vertex -3.8475 -4.27308 0
      vertex -2.875 -4.97965 3.91
      vertex -3.8475 -4.27308 3.91
    endloop
  endfacet
  facet normal -0.587789 -0.809014 -0
    outer loop
      vertex -2.875 -4.97965 3.91
      vertex -3.8475 -4.27308 0
      vertex -2.875 -4.97965 0
    endloop
  endfacet
  facet normal -0.866023 -0.500004 0
    outer loop
      vertex -4.65185 -3.37976 0
      vertex -5.25289 -2.33874 3.91
      vertex -5.25289 -2.33874 0
    endloop
  endfacet
  facet normal -0.866023 -0.500004 0
    outer loop
      vertex -5.25289 -2.33874 3.91
      vertex -4.65185 -3.37976 0
      vertex -4.65185 -3.37976 3.91
    endloop
  endfacet
  facet normal -0.743144 -0.669131 0
    outer loop
      vertex -3.8475 -4.27308 0
      vertex -4.65185 -3.37976 3.91
      vertex -4.65185 -3.37976 0
    endloop
  endfacet
  facet normal -0.743144 -0.669131 0
    outer loop
      vertex -4.65185 -3.37976 3.91
      vertex -3.8475 -4.27308 0
      vertex -3.8475 -4.27308 3.91
    endloop
  endfacet
  facet normal -0.994522 -0.104528 0
    outer loop
      vertex -5.62435 -1.19549 0
      vertex -5.75 0 3.91
      vertex -5.75 0 0
    endloop
  endfacet
  facet normal -0.994522 -0.104528 0
    outer loop
      vertex -5.75 0 3.91
      vertex -5.62435 -1.19549 0
      vertex -5.62435 -1.19549 3.91
    endloop
  endfacet
  facet normal 0.587789 -0.809014 0
    outer loop
      vertex 2.875 -4.97965 0
      vertex 3.8475 -4.27308 3.91
      vertex 2.875 -4.97965 3.91
    endloop
  endfacet
  facet normal 0.587789 -0.809014 0
    outer loop
      vertex 3.8475 -4.27308 3.91
      vertex 2.875 -4.97965 0
      vertex 3.8475 -4.27308 0
    endloop
  endfacet
  facet normal 0.406731 -0.913548 0
    outer loop
      vertex 1.77685 -5.46857 0
      vertex 2.875 -4.97965 3.91
      vertex 1.77685 -5.46857 3.91
    endloop
  endfacet
  facet normal 0.406731 -0.913548 0
    outer loop
      vertex 2.875 -4.97965 3.91
      vertex 1.77685 -5.46857 0
      vertex 2.875 -4.97965 0
    endloop
  endfacet
  facet normal -0.207914 -0.978147 0
    outer loop
      vertex -1.77685 -5.46857 0
      vertex -0.601038 -5.7185 3.91
      vertex -1.77685 -5.46857 3.91
    endloop
  endfacet
  facet normal -0.207914 -0.978147 -0
    outer loop
      vertex -0.601038 -5.7185 3.91
      vertex -1.77685 -5.46857 0
      vertex -0.601038 -5.7185 0
    endloop
  endfacet
  facet normal -0.951058 -0.309014 0
    outer loop
      vertex -5.25289 -2.33874 0
      vertex -5.62435 -1.19549 3.91
      vertex -5.62435 -1.19549 0
    endloop
  endfacet
  facet normal -0.951058 -0.309014 0
    outer loop
      vertex -5.62435 -1.19549 3.91
      vertex -5.25289 -2.33874 0
      vertex -5.25289 -2.33874 3.91
    endloop
  endfacet
  facet normal 0.743144 -0.669131 0
    outer loop
      vertex 3.8475 -4.27308 3.91
      vertex 4.65185 -3.37976 0
      vertex 4.65185 -3.37976 3.91
    endloop
  endfacet
  facet normal 0.743144 -0.669131 0
    outer loop
      vertex 4.65185 -3.37976 0
      vertex 3.8475 -4.27308 3.91
      vertex 3.8475 -4.27308 0
    endloop
  endfacet
  facet normal -0.406731 -0.913548 0
    outer loop
      vertex -2.875 -4.97965 0
      vertex -1.77685 -5.46857 3.91
      vertex -2.875 -4.97965 3.91
    endloop
  endfacet
  facet normal -0.406731 -0.913548 -0
    outer loop
      vertex -1.77685 -5.46857 3.91
      vertex -2.875 -4.97965 0
      vertex -1.77685 -5.46857 0
    endloop
  endfacet
  facet normal -1 0 0
    outer loop
      vertex -5.75 0 0
      vertex -5.75 101.2 3.91
      vertex -5.75 101.2 0
    endloop
  endfacet
  facet normal -1 -0 0
    outer loop
      vertex -5.75 101.2 3.91
      vertex -5.75 0 0
      vertex -5.75 0 3.91
    endloop
  endfacet
  facet normal 1 -0 0
    outer loop
      vertex 5.75 0 3.91
      vertex 5.75 101.2 0
      vertex 5.75 101.2 3.91
    endloop
  endfacet
  facet normal 1 0 0
    outer loop
      vertex 5.75 101.2 0
      vertex 5.75 0 3.91
      vertex 5.75 0 0
    endloop
  endfacet
  facet normal 0.866041 0.499973 0
    outer loop
      vertex 5.75 101.2 3.91
      vertex 2.875 106.18 0
      vertex 2.875 106.18 3.91
    endloop
  endfacet
  facet normal 0.866041 0.499973 0
    outer loop
      vertex 2.875 106.18 0
      vertex 5.75 101.2 3.91
      vertex 5.75 101.2 0
    endloop
  endfacet
  facet normal -0.866041 0.499973 0
    outer loop
      vertex -5.75 101.2 0
      vertex -2.875 106.18 3.91
      vertex -2.875 106.18 0
    endloop
  endfacet
  facet normal -0.866041 0.499973 0
    outer loop
      vertex -2.875 106.18 3.91
      vertex -5.75 101.2 0
      vertex -5.75 101.2 3.91
    endloop
  endfacet
  facet normal 0 1 -0
    outer loop
      vertex 2.875 106.18 0
      vertex -2.875 106.18 3.91
      vertex 2.875 106.18 3.91
    endloop
  endfacet
  facet normal 0 1 0
    outer loop
      vertex -2.875 106.18 3.91
      vertex 2.875 106.18 0
      vertex -2.875 106.18 0
    endloop
  endfacet
  facet normal 0 0 1
    outer loop
      vertex -2.75 0 12
      vertex -0.5 0.5 12
      vertex -2.69745 0.5 12
    endloop
  endfacet
  facet normal 0 0 1
    outer loop
      vertex -0.5 0.5 12
      vertex -2.75 0 12
      vertex -0.5 -0.5 12
    endloop
  endfacet
  facet normal 0 0 1
    outer loop
      vertex -0.5 -0.5 12
      vertex -2.75 0 12
      vertex -2.69745 -0.5 12
    endloop
  endfacet
  facet normal 0 0 1
    outer loop
      vertex 0.287453 2.73493 12
      vertex 0.5 0.5 12
      vertex 0.5 2.68976 12
    endloop
  endfacet
  facet normal 0 0 1
    outer loop
      vertex 0.5 0.5 12
      vertex -0.5 0.5 12
      vertex 0.5 -0.5 12
    endloop
  endfacet
  facet normal 0 0 1
    outer loop
      vertex 0.5 0.5 12
      vertex 0.287453 2.73493 12
      vertex -0.5 0.5 12
    endloop
  endfacet
  facet normal 0 0 1
    outer loop
      vertex -0.5 -0.5 12
      vertex 0.5 -0.5 12
      vertex -0.5 0.5 12
    endloop
  endfacet
  facet normal 0 0 1
    outer loop
      vertex -0.5 0.5 12
      vertex 0.287453 2.73493 12
      vertex -0.287453 2.73493 12
    endloop
  endfacet
  facet normal 0 -0 1
    outer loop
      vertex 0.287453 -2.73493 12
      vertex 0.5 -0.5 12
      vertex -0.5 -0.5 12
    endloop
  endfacet
  facet normal 0 0 1
    outer loop
      vertex -0.5 0.5 12
      vertex -0.287453 2.73493 12
      vertex -0.5 2.68976 12
    endloop
  endfacet
  facet normal 0 0 1
    outer loop
      vertex 0.5 -0.5 12
      vertex 0.287453 -2.73493 12
      vertex 0.5 -2.68976 12
    endloop
  endfacet
  facet normal 0 0 1
    outer loop
      vertex 0.287453 -2.73493 12
      vertex -0.5 -0.5 12
      vertex -0.287453 -2.73493 12
    endloop
  endfacet
  facet normal 0 0 1
    outer loop
      vertex -0.287453 -2.73493 12
      vertex -0.5 -0.5 12
      vertex -0.5 -2.68976 12
    endloop
  endfacet
  facet normal -0 0 1
    outer loop
      vertex 0.5 0.5 12
      vertex 2.75 0 12
      vertex 2.69745 0.5 12
    endloop
  endfacet
  facet normal 0 0 1
    outer loop
      vertex 0.5 -0.5 12
      vertex 2.75 0 12
      vertex 0.5 0.5 12
    endloop
  endfacet
  facet normal 0 0 1
    outer loop
      vertex 2.75 0 12
      vertex 0.5 -0.5 12
      vertex 2.69745 -0.5 12
    endloop
  endfacet
  facet normal 0 1 0
    outer loop
      vertex -0.5 -0.5 32.4
      vertex -2.4855 -0.5 32.1717
      vertex -2.44745 -0.5 32.4
    endloop
  endfacet
  facet normal 0 1 0
    outer loop
      vertex -0.5 -0.5 32.4
      vertex -2.69745 -0.5 26.4
      vertex -2.4855 -0.5 32.1717
    endloop
  endfacet
  facet normal 0 1 -0
    outer loop
      vertex -0.5 -0.5 12
      vertex -2.69745 -0.5 26.4
      vertex -0.5 -0.5 32.4
    endloop
  endfacet
  facet normal 0 1 0
    outer loop
      vertex -2.69745 -0.5 26.4
      vertex -0.5 -0.5 12
      vertex -2.69745 -0.5 12
    endloop
  endfacet
  facet normal 0 1 0
    outer loop
      vertex -2.4855 -0.5 32.1717
      vertex -2.69745 -0.5 26.4
      vertex -3.44745 -0.5 26.4
    endloop
  endfacet
  facet normal 0 1 0
    outer loop
      vertex 2.4855 -0.5 32.1717
      vertex 0.5 -0.5 32.4
      vertex 2.44745 -0.5 32.4
    endloop
  endfacet
  facet normal 0 1 -0
    outer loop
      vertex 2.69745 -0.5 26.4
      vertex 2.4855 -0.5 32.1717
      vertex 3.44745 -0.5 26.4
    endloop
  endfacet
  facet normal 0 1 0
    outer loop
      vertex 2.4855 -0.5 32.1717
      vertex 2.69745 -0.5 26.4
      vertex 0.5 -0.5 32.4
    endloop
  endfacet
  facet normal 0 1 0
    outer loop
      vertex 0.5 -0.5 12
      vertex 2.69745 -0.5 26.4
      vertex 2.69745 -0.5 12
    endloop
  endfacet
  facet normal 0 1 0
    outer loop
      vertex 2.69745 -0.5 26.4
      vertex 0.5 -0.5 12
      vertex 0.5 -0.5 32.4
    endloop
  endfacet
  facet normal 0 -1 0
    outer loop
      vertex -2.4855 0.5 32.1717
      vertex -0.5 0.5 32.4
      vertex -2.44745 0.5 32.4
    endloop
  endfacet
  facet normal 0 -1 0
    outer loop
      vertex -2.69745 0.5 26.4
      vertex -2.4855 0.5 32.1717
      vertex -3.44745 0.5 26.4
    endloop
  endfacet
  facet normal 0 -1 -0
    outer loop
      vertex -2.4855 0.5 32.1717
      vertex -2.69745 0.5 26.4
      vertex -0.5 0.5 32.4
    endloop
  endfacet
  facet normal 0 -1 0
    outer loop
      vertex -0.5 0.5 12
      vertex -2.69745 0.5 26.4
      vertex -2.69745 0.5 12
    endloop
  endfacet
  facet normal 0 -1 0
    outer loop
      vertex -2.69745 0.5 26.4
      vertex -0.5 0.5 12
      vertex -0.5 0.5 32.4
    endloop
  endfacet
  facet normal 0 -1 0
    outer loop
      vertex 0.5 0.5 32.4
      vertex 2.4855 0.5 32.1717
      vertex 2.44745 0.5 32.4
    endloop
  endfacet
  facet normal 0 -1 0
    outer loop
      vertex 0.5 0.5 32.4
      vertex 2.69745 0.5 26.4
      vertex 2.4855 0.5 32.1717
    endloop
  endfacet
  facet normal 0 -1 0
    outer loop
      vertex 0.5 0.5 12
      vertex 2.69745 0.5 26.4
      vertex 0.5 0.5 32.4
    endloop
  endfacet
  facet normal 0 -1 -0
    outer loop
      vertex 2.69745 0.5 26.4
      vertex 0.5 0.5 12
      vertex 2.69745 0.5 12
    endloop
  endfacet
  facet normal 0 -1 0
    outer loop
      vertex 2.4855 0.5 32.1717
      vertex 2.69745 0.5 26.4
      vertex 3.44745 0.5 26.4
    endloop
  endfacet
  facet normal 1 0 0
    outer loop
      vertex -0.5 3.11693 28.3791
      vertex -0.5 2.68976 26.4
      vertex -0.5 3.45231 26.4
    endloop
  endfacet
  facet normal 1 -0 0
    outer loop
      vertex -0.5 0.5 32.4
      vertex -0.5 3.11693 28.3791
      vertex -0.5 2.43557 32.4
    endloop
  endfacet
  facet normal 1 0 0
    outer loop
      vertex -0.5 3.11693 28.3791
      vertex -0.5 0.5 32.4
      vertex -0.5 2.68976 26.4
    endloop
  endfacet
  facet normal 1 0 0
    outer loop
      vertex -0.5 2.68976 26.4
      vertex -0.5 0.5 32.4
      vertex -0.5 0.5 12
    endloop
  endfacet
  facet normal 1 0 0
    outer loop
      vertex -0.5 2.68976 26.4
      vertex -0.5 0.5 12
      vertex -0.5 2.68976 12
    endloop
  endfacet
  facet normal 1 0 0
    outer loop
      vertex -0.5 -0.5 32.4
      vertex -0.5 -3.11693 28.3791
      vertex -0.5 -2.68976 26.4
    endloop
  endfacet
  facet normal 1 0 0
    outer loop
      vertex -0.5 -2.68976 26.4
      vertex -0.5 -3.11693 28.3791
      vertex -0.5 -3.45231 26.4
    endloop
  endfacet
  facet normal 1 0 0
    outer loop
      vertex -0.5 -3.11693 28.3791
      vertex -0.5 -0.5 32.4
      vertex -0.5 -2.43557 32.4
    endloop
  endfacet
  facet normal 1 0 0
    outer loop
      vertex -0.5 -0.5 32.4
      vertex -0.5 -2.68976 26.4
      vertex -0.5 -0.5 12
    endloop
  endfacet
  facet normal 1 0 0
    outer loop
      vertex -0.5 -0.5 12
      vertex -0.5 -2.68976 26.4
      vertex -0.5 -2.68976 12
    endloop
  endfacet
  facet normal -1 0 0
    outer loop
      vertex 0.5 0.5 12
      vertex 0.5 2.68976 26.4
      vertex 0.5 2.68976 12
    endloop
  endfacet
  facet normal -1 0 0
    outer loop
      vertex 0.5 0.5 32.4
      vertex 0.5 2.68976 26.4
      vertex 0.5 0.5 12
    endloop
  endfacet
  facet normal -1 0 0
    outer loop
      vertex 0.5 2.68976 26.4
      vertex 0.5 0.5 32.4
      vertex 0.5 2.43557 32.4
    endloop
  endfacet
  facet normal -1 0 0
    outer loop
      vertex 0.5 2.68976 26.4
      vertex 0.5 3.11693 28.3791
      vertex 0.5 3.45231 26.4
    endloop
  endfacet
  facet normal -1 -0 0
    outer loop
      vertex 0.5 3.11693 28.3791
      vertex 0.5 2.68976 26.4
      vertex 0.5 2.43557 32.4
    endloop
  endfacet
  facet normal -1 0 0
    outer loop
      vertex 0.5 -2.68976 26.4
      vertex 0.5 -0.5 32.4
      vertex 0.5 -0.5 12
    endloop
  endfacet
  facet normal -1 0 0
    outer loop
      vertex 0.5 -2.68976 26.4
      vertex 0.5 -0.5 12
      vertex 0.5 -2.68976 12
    endloop
  endfacet
  facet normal -1 0 0
    outer loop
      vertex 0.5 -3.11693 28.3791
      vertex 0.5 -0.5 32.4
      vertex 0.5 -2.68976 26.4
    endloop
  endfacet
  facet normal -1 -0 0
    outer loop
      vertex 0.5 -0.5 32.4
      vertex 0.5 -3.11693 28.3791
      vertex 0.5 -2.43557 32.4
    endloop
  endfacet
  facet normal -1 0 -0
    outer loop
      vertex 0.5 -3.11693 28.3791
      vertex 0.5 -2.68976 26.4
      vertex 0.5 -3.45231 26.4
    endloop
  endfacet
endsolid OpenSCAD_Model
